<?xml version="1.0" encoding="utf-8"?>
<?xml-stylesheet type="text/xsl" href="rss1.xsl"?>
<rss version="2.0" xmlns:atom="http://www.w3.org/2005/Atom" xmlns:content="http://purl.org/rss/1.0/modules/content/" xmlns:dc="http://purl.org/dc/elements/1.1/" xmlns:media="http://search.yahoo.com/mrss/">
<channel>
 <title>Getty</title>
 <link>http://www.gettyimg.com/</link>
 <atom:link href="http://www.gettyimg.com/" rel="self" type="application/rss+xml" />

 
                <item>
                <title><![CDATA[【UPSCALED】Lil Uzi Vert, Quavo &amp; Travis Scott - Go Off [4K AI Upscale HEVC 10-bit | PCM | DD+ Dolby Atmos]]]></title>
                <link><![CDATA[https://sharemania.us/threads/lil-uzi-vert-quavo-travis-scott-go-off-4k-ai-upscale-hevc-10-bit-pcm-dd-dolby-atmos.225189/]]></link>
                <description><![CDATA[<article>
<blockquote class="messageText SelectQuoteContainer ugc baseHtml">
<b><img src="https://images2.imgbox.com/f6/34/dSFJtZzH_o.jpg" class="bbCodeImage LbImage" alt="[​IMG]" data-url="https://images2.imgbox.com/f6/34/dSFJtZzH_o.jpg" style=""> <br>
<br>
Genre: <span style="color: #0059b3">Hip Hop</span> <br>
Style: <span style="color: #0059b3">Trap, Pop Rap</span> <br>
Year: <span style="color: #0059b3">2017</span><br>
Video Source: <span style="color: #0059b3">Vimeo, WebMaster, 1080p</span><br>
Audia Source: <span style="color: #0059b3">Qobuz &amp; Apple Music, thanks moi &amp; BbbDdd345</span></b><br>
<br>
"<b>Go Off</b>" is a song by American rappers Lil Uzi Vert, Quavo, and Travis Scott. It was released on March 2, 2017 as the lead single from the soundtrack for the 2017 film <i>The Fate of the Furious</i>. The song was produced by The Featherstones, Murda Beatz and Breyan Isaac.<br>
<br>
The music video was released alongside the single. It features footage from <i>The Fate of the Furious</i> and shows Lil Uzi Vert, Quavo and Travis Scott performing while surrounded by the action, with cars racing and doing donuts. Two of Dominic Toretto's cars, his 1971 Plymouth GTX from the New York chase and his 1968 Dodge Ice Charger from the final battle near the end of the movie, also appear in the video. The other two Migos members Offset and Takeoff also have cameos in the video.<br>
<br>
<b>Release Info</b><br>
The video track is upscaled to 4K with Topaz Video AI and encoded to HEVC 10-bit.<br>
The PCM track is lossless (Qobuz, CD quality), synced with Adobe Audition.<br>
The Dolby Atmos track is lossy (Dolby Digital Plus), synced by muxing.<br>
The timed lyrics are synced and edited to match the music video.<br>
Enable the subtitles to see the lyrics.<br>
<br>
<div class="ToggleTriggerAnchor bbCodeSpoilerContainer">
<button type="button" class="button bbCodeSpoilerButton ToggleTrigger Tooltip JsOnly" data-target="> .SpoilerTarget"><span>Spoiler: <span class="SpoilerTitle">Media Info</span></span></button>
<div class="SpoilerTarget bbCodeSpoilerText">
<div class="bbCodeBlock bbCodeCode">
<div class="type">Code:</div>
<pre>General
Unique ID                      : 61639579500762272887116600136546060759 (0x2E5F59E7B7F795ADE46599C5771309D7)
Complete name                  : Lil Uzi Vert, Quavo &amp; Travis Scott - Go Off.mkv
Format                         : Matroska
Format version                 : Version 4 / Version 2
File size                      : 568 MiB
Duration                       : 3 min 37 s
Overall bit rate               : 21.9 Mb/s
Frame rate                     : 23.976 FPS
Encoded date                   : 2023-07-25 21:26:19 UTC
Writing application            : mkvmerge v76.0 ('Celebration') 64-bit
Writing library                : libebml v1.4.4 + libmatroska v1.7.1

Video
ID                             : 1
Format                         : HEVC
Format/Info                    : High Efficiency Video Coding
Format profile                 : Main 10@L5@Main
Codec ID                       : V_MPEGH/ISO/HEVC
Duration                       : 3 min 36 s
Bit rate                       : 19.5 Mb/s
Width                          : 3 840 pixels
Height                         : 2 160 pixels
Display aspect ratio           : 16:9
Frame rate mode                : Constant
Frame rate                     : 23.976 (24000/1001) FPS
Color space                    : YUV
Chroma subsampling             : 4:2:0
Bit depth                      : 10 bits
Bits/(Pixel*Frame)             : 0.098
Stream size                    : 503 MiB (89%)
Default                        : Yes
Forced                         : No
Color range                    : Limited
Color primaries                : BT.709
Transfer characteristics       : BT.709
Matrix coefficients            : BT.709

Audio #1
ID                             : 2
Format                         : PCM
Format settings                : Little / Signed
Codec ID                       : A_PCM/INT/LIT
Duration                       : 3 min 36 s
Bit rate mode                  : Constant
Bit rate                       : 1 411.2 kb/s
Channel(s)                     : 2 channels
Sampling rate                  : 44.1 kHz
Frame rate                     : 25.001 FPS (1764 SPF)
Bit depth                      : 16 bits
Stream size                    : 36.4 MiB (6%)
Language                       : English
Default                        : Yes
Forced                         : No

Audio #2
ID                             : 3
Format                         : E-AC-3 JOC
Format/Info                    : Enhanced AC-3 with Joint Object Coding
Commercial name                : Dolby Digital Plus with Dolby Atmos
Codec ID                       : A_EAC3
Duration                       : 3 min 37 s
Bit rate mode                  : Constant
Bit rate                       : 768 kb/s
Channel(s)                     : 6 channels
Channel layout                 : L R C LFE Ls Rs
Sampling rate                  : 48.0 kHz
Frame rate                     : 31.250 FPS (1536 SPF)
Compression mode               : Lossy
Delay relative to video        : 48 ms
Stream size                    : 19.9 MiB (4%)
Title                          : Dolby Digital Plus with Dolby Atmos
Service kind                   : Complete Main
Default                        : No
Forced                         : No
Complexity index               : 16
Number of dynamic objects      : 15
Bed channel count              : 1 channel
Bed channel configuration      : LFE

Audio #3
ID                             : 4
Format                         : AAC LC
Format/Info                    : Advanced Audio Codec Low Complexity
Codec ID                       : A_AAC-2
Duration                       : 3 min 36 s
Bit rate                       : 317 kb/s
Channel(s)                     : 2 channels
Channel layout                 : L R
Sampling rate                  : 48.0 kHz
Frame rate                     : 46.875 FPS (1024 SPF)
Compression mode               : Lossy
Stream size                    : 8.19 MiB (1%)
Language                       : English
Default                        : No
Forced                         : No

Text
ID                             : 5
Format                         : UTF-8
Codec ID                       : S_TEXT/UTF8
Codec ID/Info                  : UTF-8 Plain Text
Duration                       : 3 min 30 s
Bit rate                       : 106 b/s
Frame rate                     : 0.384 FPS
Count of elements              : 81
Stream size                    : 2.74 KiB (0%)
Title                          : Lyrics
Language                       : English
Default                        : No
Forced                         : No
</pre>
</div></div>
</div><br>
<div class="bbCodeBlock bbCodeVfcHH HiddenContent">
<div class="attribution type">Hidden Content:</div>
<blockquote>You must reply before you can see the hidden data contained here.</blockquote>
</div>
<div class="messageTextEndMarker">&nbsp;</div>
</blockquote>
</article>]]></description>
                <author><![CDATA[ADHDerby]]></author>
                </item>

                </channel></rss>